<?xml version="1.0" encoding="UTF-8"?>
<svg id="Layer_1" data-name="Layer 1" xmlns="http://www.w3.org/2000/svg" xmlns:xlink="http://www.w3.org/1999/xlink" viewBox="0 0 299.52 240.7">
  <defs>
    <style>
      .cls-1 {
        fill: url(#linear-gradient-2);
      }

      .cls-2 {
        fill: url(#linear-gradient);
      }
    </style>
    <linearGradient id="linear-gradient" x1="-36.59" y1="189.93" x2="93.78" y2="59.56" gradientUnits="userSpaceOnUse">
      <stop offset="0" stop-color="#8c1842"/>
      <stop offset="1" stop-color="#de689b"/>
    </linearGradient>
    <linearGradient id="linear-gradient-2" x1="111.27" y1="186.56" x2="287.91" y2="9.93" gradientUnits="userSpaceOnUse">
      <stop offset="0" stop-color="#602c76"/>
      <stop offset="1" stop-color="#b281b9"/>
    </linearGradient>
  </defs>
  <g id="Logo">
    <path id="M_Initial" class="cls-2" d="M98.1,191.76c-12.25,5.39-26.53-.17-31.91-12.41l-17.77-40.38v76.97c0,13.57-11.11,25.01-24.68,24.75S0,229.71,0,216.49V24.88C0,11.52,10.57.23,23.94.08c6-.07,11.5,2.05,15.77,5.61.05.04.1.08.15.12,2.87,2.34,5.25,5.37,6.84,9l63.82,145.04c5.38,12.25-.17,26.53-12.41,31.91Z"/>
  </g>
  <g id="D">
    <path id="D-2" data-name="D" class="cls-1" d="M262.81.04h-82.25c-20.27,0-36.7,16.43-36.7,36.7v57.39L108.62,14.03c-5.22-11.87-19.07-17.25-30.93-12.03l-.76.33c-11.86,5.22-17.25,19.07-12.03,30.93l81.51,185.25c.91,2.08,2.09,3.96,3.48,5.61,6.57,9.96,17.85,16.54,30.68,16.54h82.25c20.27,0,36.7-16.43,36.7-36.7V36.74C299.52,16.47,283.08.04,262.81.04ZM183.19,220.3c-9.82,1.26-18.1-7.02-16.84-16.84.86-6.67,6.26-12.05,12.93-12.88,9.78-1.21,18,7,16.78,16.78-.83,6.68-6.21,12.08-12.88,12.93ZM251.25,180.52c0,.27,0,.53-.01.79-.43,12.31-13.37,15.4-17.35,4.23l-40.66-114.28c-3.66-10.3,1.7-22.45,10.37-22.96.2-.01.4-.02.6-.02h33.99c7.21,0,13.06,7.65,13.06,17.09v115.15Z"/>
  </g>
</svg>